<?xml version="1.0" encoding="UTF-8"?>
<!DOCTYPE svg PUBLIC "-//W3C//DTD SVG 1.1//EN" "http://www.w3.org/Graphics/SVG/1.1/DTD/svg11.dtd">
<!-- Creator: CorelDRAW 2019 (64-Bit) -->
<svg xmlns="http://www.w3.org/2000/svg" xml:space="preserve" width="2.03119in" height="1.4203in" version="1.1" shape-rendering="geometricPrecision" text-rendering="geometricPrecision" image-rendering="optimizeQuality" fill-rule="evenodd" clip-rule="evenodd"
viewBox="0 0 111.82 78.19"
 xmlns:xlink="http://www.w3.org/1999/xlink"
 xmlns:xodm="http://www.corel.com/coreldraw/odm/2003">
 <g id="inception-seminar">
  <metadata id="CorelCorpID_0Corel-Layer"/>
  <polygon fill="#B4B2B3" fill-rule="nonzero" points="62.98,78.19 17.92,66.17 -0,56.01 25.43,40.57 27.41,41.72 27.41,57.66 "/>
  <polygon fill="#A24B27" fill-rule="nonzero" points="27.4,21.23 62.98,0.69 14.13,23.58 14.49,24.19 "/>
  <polygon fill="#DFB467" fill-rule="nonzero" points="98.55,21.36 62.98,0.82 111.82,23.58 111.82,24.4 "/>
  <polygon fill="#BE703F" fill-rule="nonzero" points="62.98,78.19 27.41,57.66 27.41,20.54 62.98,41.08 "/>
  <polygon fill="#A95928" fill-rule="nonzero" points="27.41,20.54 27.41,57.66 62.98,78.19 28.44,57.07 "/>
  <polygon fill="#A24B27" fill-rule="nonzero" points="42.35,66.4 42.35,29.17 48,32.43 48,69.98 "/>
  <polygon fill="#BCADB5" fill-rule="nonzero" points="41.87,66.18 41.87,28.94 47.52,32.2 47.52,69.76 "/>
  <polygon fill="#DFB467" fill-rule="nonzero" points="62.98,78.19 98.55,57.66 98.55,20.54 62.98,41.08 "/>
  <polygon fill="#BD8D43" fill-rule="nonzero" points="62.98,78.19 98.55,57.66 98.55,57.02 62.98,77.55 "/>
  <polygon fill="#A24B27" fill-rule="nonzero" points="65.09,71.12 75.22,65.26 75.22,56.8 65.28,62.11 65.09,62.65 "/>
  <polygon fill="#A24B27" fill-rule="nonzero" points="84.95,65.49 84.95,28.39 78.85,31.9 78.85,69.01 "/>
  <polygon fill="#DFDEDD" fill-rule="nonzero" points="85.18,65.63 85.18,28.25 79.08,31.77 79.08,69.15 "/>
  <path fill="#944726" fill-rule="nonzero" d="M30.61 36l6.74 3.9 0 -10.41 -6.74 -3.9 0 10.41zm7.5 5.21l-8.26 -4.77 0 -12.16 8.26 4.77 0 12.16z"/>
  <polygon fill="#944726" fill-rule="nonzero" points="32.41,35.28 35.22,36.9 35.22,33.57 32.41,31.95 "/>
  <polygon fill="#944726" fill-rule="nonzero" points="31.04,31.18 36.59,34.38 33.81,28.58 "/>
  <polygon fill="#FEFEFE" fill-rule="nonzero" points="65.48,62.27 75.61,56.42 75.41,56.26 65.28,62.11 "/>
  <polygon fill="#95918F" fill-rule="nonzero" points="65.48,70.74 65.48,62.27 65.28,62.11 65.28,70.58 "/>
  <polygon fill="#DFDEDD" fill-rule="nonzero" points="65.48,70.74 75.61,64.88 75.61,56.42 65.48,62.27 "/>
  <polygon fill="#797574" fill-rule="nonzero" points="66.05,63.43 75.05,58.23 75.05,57.69 66.05,62.89 "/>
  <polygon fill="#979493" fill-rule="nonzero" points="69.77,63.64 75.05,60.6 75.05,60.07 69.77,63.1 "/>
  <polygon fill="#979493" fill-rule="nonzero" points="66.08,69.34 68.83,67.75 68.83,63.2 66.08,64.79 "/>
  <polygon fill="#979493" fill-rule="nonzero" points="69.77,64.81 75.05,61.77 75.05,61.23 69.77,64.27 "/>
  <polygon fill="#979493" fill-rule="nonzero" points="69.77,65.97 75.05,62.93 75.05,62.4 69.77,65.44 "/>
  <polygon fill="#979493" fill-rule="nonzero" points="69.77,67.14 75.05,64.1 75.05,63.56 69.77,66.6 "/>
  <polygon fill="#DFB467" fill-rule="nonzero" points="27.4,20.54 62.98,0 49.71,3.04 14.13,23.58 "/>
  <polygon fill="#ECC984" fill-rule="nonzero" points="98.55,20.54 62.98,0 76.25,3.04 111.82,23.58 "/>
  <polygon fill="#F2DE98" fill-rule="nonzero" points="62.98,41.08 27.4,20.54 62.98,0 98.55,20.54 "/>
  <polygon fill="#A75C3B" fill-rule="nonzero" points="95.52,20.54 65.43,37.91 62.98,39.33 60.52,37.91 30.44,20.54 62.98,1.76 "/>
  <polygon fill="#DFB467" fill-rule="nonzero" points="54.68,57.46 19.11,36.92 18.79,36.22 62.98,41.08 62.98,42.26 "/>
  <polygon fill="#E9C06F" fill-rule="nonzero" points="54.36,56.76 18.79,36.22 27.4,20.54 62.98,41.08 "/>
  <path fill="#BC6937" fill-rule="nonzero" d="M69.77 59.27l-6.79 -12.57 0 -4.44 0.62 -0.06 8 14.56 7.26 -4.19 0 1.57 -9.08 5.12zm15.4 -8.69l0 -1.65 13.37 -7.72 0 1.83 -13.37 7.55z"/>
  <polygon fill="#8A3624" fill-rule="nonzero" points="78.85,54.14 78.85,52.57 79.08,52.44 79.08,54.01 "/>
  <polygon fill="#BD8672" fill-rule="nonzero" points="79.08,54.01 79.08,52.44 85.18,48.92 85.18,50.57 "/>
  <polygon fill="#BE703F" fill-rule="nonzero" points="71.2,57.18 106.78,36.64 107.17,36.22 62.98,41.08 62.98,42.26 "/>
  <polygon fill="#FCE89B" fill-rule="nonzero" points="71.6,56.76 107.17,36.22 98.55,20.54 62.98,41.08 "/>
  <polygon fill="#A24B27" fill-rule="nonzero" points="54.36,56.76 18.79,36.22 19.11,36.92 54.68,57.46 "/>
  <polygon fill="#D5A464" fill-rule="nonzero" points="62.98,1.75 62.98,39.33 30.44,20.54 "/>
  <polygon fill="#BE703F" fill-rule="nonzero" points="65.43,37.91 62.98,39.33 60.52,37.91 62.98,36.49 "/>
  <polygon fill="#B28D60" fill-rule="nonzero" points="62.98,39.33 54.01,34.15 60.52,37.91 62.98,39.33 65.43,37.91 95.52,20.54 "/>
  <path fill="#7C402F" fill-rule="nonzero" d="M65.43 37.91l-2.46 -1.41 0 -10.9 32.54 -5.05 -30.08 17.37zm-4.92 0l0 0 -6.51 -3.76 -3.08 -1.78 9.59 5.54 -0 0z"/>
  <polygon fill="#9D6744" fill-rule="nonzero" points="60.52,37.91 50.93,32.37 50.76,32.27 62.98,25.59 62.98,36.49 62.98,36.49 "/>
  <polygon fill="#8C4B31" fill-rule="nonzero" points="62.98,39.33 60.52,37.91 60.52,37.91 62.98,36.49 62.98,36.49 65.43,37.91 "/>
 </g>
</svg>
